<?xml version="1.0" ?><!DOCTYPE svg  PUBLIC '-//W3C//DTD SVG 1.1//EN'  'http://www.w3.org/Graphics/SVG/1.1/DTD/svg11.dtd'><svg enable-background="new 0 0 40 40" version="1.1" viewBox="0 0 40 40" xml:space="preserve" xmlns="http://www.w3.org/2000/svg" xmlns:xlink="http://www.w3.org/1999/xlink"><g id="Social"><g id="GitHub"/><g id="Soundcloud_3_"/><g id="Dropbox_2_"/><g id="Instagram_7_"/><g id="WordPress_3_"/><g id="PlayStation"/><g id="XBox_2_"/><g id="Windows_2_"/><g id="iOS_1_"/><g id="Apple_2_"><path d="M21.3,9.8c0.9-1,2.4-1.8,3.6-1.8c0.2,1.4-0.4,2.8-1.3,3.8c-0.9,1-2.3,1.8-3.7,1.7    C19.8,12.2,20.5,10.7,21.3,9.8z M30,25.6c0,0-3.3-1.2-3.3-4.8c0-3,2.5-4.5,2.7-4.6c-1.5-2.1-3.7-2.4-4.5-2.4    c-1.9-0.2-3.7,1.1-4.7,1.1c-1,0-2.5-1.1-4.1-1.1c-2.1,0-4,1.2-5,3C8.9,20.6,10.5,26,12.6,29c1,1.5,2.3,3.1,3.9,3    c1.6-0.1,2.1-1,4-1c1.9,0,2.4,1,4.1,0.9c1.7,0,2.7-1.5,3.7-2.9C29.5,27.3,30,25.7,30,25.6z" fill="#7F8C8D"/></g><g id="Android_2_"/><g id="Deviantart_2_"/><g id="Yelp_2_"/><g id="Picassa_6_"/><g id="LastFM_2_"/><g id="Amazon_3_"/><g id="AIM_2_"/><g id="fffound_1_"/><g id="Forrst_3_"/><g id="Yahoo_3_"/><g id="YouTube_3_"/><g id="Behance_2_"/><g id="Tumblr_2_"/><g id="Vimeo_2_"/><g id="Skype_3_"/><g id="Pinterest_2_"/><g id="LinkedIn_1_"/><g id="Dribbble_3_"/><g id="Flickr_3_"/><g id="Google_Plus_2_"/><g id="RSS_2_"/><g id="Twitter_2_"/><g id="Facebook_2_"/></g><g id="Lockup"/></svg>